<svg width="94" height="69" viewBox="0 0 94 69" fill="none" xmlns="http://www.w3.org/2000/svg">
<path d="M45.7072 50.1949C45.7072 51.7813 45.7072 51.7619 45.6878 53.1835C42.6799 53.5324 40.1566 55.3159 39.1647 56.1494C37.9208 57.193 36.8869 58.424 36.0049 59.7842C35.0809 61.2122 33.7045 64.4463 33.6787 64.5045C33.669 64.5271 32.6028 63.5675 31.2943 62.1686C31.7143 61.1831 32.7869 59.1412 32.8322 59.0734C32.9033 58.9668 32.3895 58.3852 32.2022 58.1687C30.6546 56.3918 29.7467 54.3337 29.5561 51.9848C29.3654 49.6198 29.9018 47.4487 31.2587 45.5328C32.648 43.5684 34.7707 42.1985 37.1357 41.7559C39.2746 41.3552 41.3035 41.6783 43.2227 42.6056C43.5716 42.7736 43.9012 42.9836 44.2307 43.1936C43.8624 43.4618 43.5005 43.7364 43.1419 44.0143C42.6314 44.4117 42.1177 44.8058 41.6266 45.2258C41.6234 45.2291 41.6137 45.2388 41.604 45.2452C40.9158 44.9447 40.1921 44.7509 39.4361 44.6927C36.5606 44.4633 34.0825 46.0336 33.0745 48.6118C32.3185 50.5439 32.4606 52.4565 33.3136 54.3304C33.6108 54.9831 34.5833 56.2561 34.6641 56.3659C34.7675 56.2496 37.2779 52.1496 41.5426 51.0705C40.2858 48.4535 38.4151 48.8024 37.5266 49.6683C36.7383 50.4372 36.8805 52.0074 36.8837 52.3015C36.8514 52.2756 36.8223 52.2465 36.79 52.2239C36.2892 51.8136 35.7755 51.4194 35.2553 51.035C34.8676 50.7442 34.4767 50.4599 34.0825 50.1788C34.5672 48.5633 35.5526 47.3421 37.1422 46.6054C39.0064 45.7395 41.2583 46.1208 42.7607 47.5262C44.2566 48.9898 44.5926 50.2563 44.612 50.3274C45.0481 50.2595 45.1935 50.2175 45.7072 50.1949ZM64.2654 51.9848C64.456 49.6198 63.9197 47.4487 62.5627 45.5328C61.1734 43.5684 59.0508 42.1985 56.6857 41.7559C54.5469 41.3552 52.5179 41.6783 50.5988 42.6056C50.224 42.7865 49.8718 43.0159 49.5164 43.2388C49.9332 43.5813 50.3306 43.969 50.5794 44.1564C51.0834 44.5344 51.5842 44.9157 52.0721 45.3163C52.8055 44.9771 53.5744 44.7574 54.3854 44.6927C57.2608 44.4633 59.7389 46.0336 60.747 48.6118C60.8956 48.9866 61.0054 49.3646 61.0862 49.7394C61.1056 49.7975 61.1153 49.8621 61.1217 49.9268C61.3964 51.413 61.1637 52.883 60.5047 54.3304C60.2074 54.9831 59.2349 56.2561 59.1541 56.3659C59.0508 56.2496 56.5404 52.1496 52.2756 51.0705C53.5324 48.4535 55.4031 48.8024 56.2916 49.6683C57.1155 50.4728 56.9248 52.1561 56.9345 52.337C56.9507 52.337 56.9668 52.337 56.983 52.337C57.0315 52.2918 57.0735 52.2562 57.0864 52.2465C57.5775 51.8265 58.0912 51.4291 58.6017 51.035C58.8375 50.8508 59.264 50.4372 59.7034 50.0786C59.2091 48.5116 58.2269 47.3259 56.6728 46.6054C54.8086 45.7395 52.5567 46.1208 51.0543 47.5262C49.5584 48.9898 49.2224 50.2563 49.203 50.3274C48.7701 50.266 48.6247 50.224 48.111 50.2046C48.111 51.791 48.111 51.7716 48.1304 53.1932C51.1383 53.5421 53.6617 55.3256 54.6535 56.1591C55.8974 57.2027 56.9313 58.4337 57.8133 59.7939C58.7374 61.2219 60.1137 64.456 60.1396 64.5142C60.1493 64.5368 61.2154 63.5772 62.5239 62.1783C62.1039 61.1928 61.0313 59.1509 60.986 59.0831C60.915 58.9765 61.4287 58.3949 61.6161 58.1784C63.1701 56.395 64.0748 54.3337 64.2654 51.9848ZM9.91879 0C10.3614 0.36832 10.817 0.726947 11.2725 1.08234C8.53921 2.49424 0.148617 7.99642 4.0709 14.1932C6.72345 18.3837 14.2869 21.8246 17.059 21.9732C17.8571 16.555 18.962 15.0979 21.5855 13.434C16.723 13.3274 15.421 13.98 12.5843 11.9995C6.84623 7.99319 10.5003 2.85933 11.6861 1.4022C12.0092 1.64775 12.6812 2.155 13.2466 2.56209C12.3904 4.94971 11.6279 6.93346 13.8249 9.13046C15.5502 10.8558 17.7569 10.2677 21.285 10.4842C25.3269 10.5359 44.1629 10.5068 45.4132 10.5036C45.4423 13.2208 45.4229 13.3985 45.4229 13.3985C45.4229 13.3985 42.8608 13.4308 40.4894 13.4631C40.4054 16.723 41.8269 20.5452 45.4229 22.0637C45.4391 24.0862 45.4455 23.873 45.4229 24.9715C45.4229 25.0167 37.2811 24.4642 36.8062 13.4308C35.1003 13.4308 35.1067 13.4308 33.4299 13.4243C33.2393 16.8813 33.795 19.1236 35.2295 21.9247C34.3442 22.558 34.3539 22.516 32.3637 23.9053C31.2264 22.0701 30.3282 18.4386 30.3412 13.4308C25.6079 13.4308 20.7519 14.3063 19.7084 22.1154C18.9685 28.4608 19.0493 33.7045 19.0331 35.5138C19.9862 35.5267 22.7066 35.53 22.7066 35.53C22.7066 35.53 22.7034 29.1296 22.8294 24.9392C22.9554 20.6389 22.7163 16.7973 27.3817 16.3806C28.2023 28.8711 36.2343 35.6043 45.4261 36.7835C45.4261 38.6025 45.4261 38.2407 45.4132 39.9886C45.2291 39.9595 27.5497 39.0613 25.7372 22.4094C25.6952 28.4382 25.5433 32.4832 25.4432 37.6785C23.3302 37.672 14.8782 37.6462 12.5293 37.6462C9.71525 33.4848 8.54567 26.28 15.6439 24.4933C-10.9785 14.6359 2.9304 2.43285 9.91879 0ZM13.8702 35.517C15.072 35.517 16.2901 35.517 16.2901 35.517C16.2901 35.517 16.3385 32.7837 16.7166 26.3963C12.6683 26.9649 11.5924 31.2652 13.8702 35.517ZM78.3585 24.4998C85.4567 26.2864 84.2871 33.4913 81.4731 37.6527C79.121 37.6527 70.6722 37.6785 68.5592 37.685C68.4591 32.4897 68.3072 28.4414 68.2652 22.4158C66.4527 39.0678 48.7733 39.9627 48.5892 39.995C48.5762 38.2471 48.5762 38.609 48.5762 36.79C57.7681 35.6107 65.7968 28.8776 66.6207 16.387C71.2893 16.8006 71.047 20.6453 71.173 24.9456C71.2958 29.1361 71.2958 35.5364 71.2958 35.5364C71.2958 35.5364 74.0162 35.5332 74.9693 35.5203C74.9531 33.711 75.0339 28.4673 74.294 22.1218C73.2505 14.3128 68.3912 13.4372 63.6612 13.4372C63.6741 18.4451 62.776 22.0798 61.6387 23.9117C59.6485 22.5192 59.6582 22.5612 58.7729 21.9312C60.2074 19.1268 60.7631 16.8878 60.5725 13.4308C58.8957 13.4372 58.9054 13.4372 57.1962 13.4372C56.7213 24.4707 48.5795 25.0232 48.5795 24.9779C48.5569 23.8794 48.5633 24.0927 48.5795 22.0701C52.1754 20.5516 53.597 16.7295 53.513 13.4695C51.1416 13.4372 48.5795 13.4049 48.5795 13.4049C48.5795 13.4049 48.5601 13.2272 48.5892 10.51C49.8395 10.5133 68.6755 10.5391 72.7174 10.4907C76.2423 10.2774 78.4522 10.8654 80.1775 9.13692C82.3745 6.93993 81.612 4.95294 80.7558 2.56855C81.318 2.16146 81.9932 1.65421 82.3163 1.40866C83.502 2.86579 87.1594 7.99966 81.4181 12.0059C78.5814 13.9865 77.2826 13.3338 72.4169 13.4405C75.0404 15.1044 76.1486 16.5583 76.9434 21.9797C79.7154 21.831 87.2789 18.3902 89.9315 14.1997C93.8505 8.00289 85.46 2.50393 82.7299 1.08881C83.1854 0.733409 83.641 0.374782 84.0836 0.0064619C91.0688 2.43285 104.978 14.6359 78.3585 24.4998ZM77.2826 26.3963C77.6606 32.7837 77.7091 35.517 77.7091 35.517C77.7091 35.517 78.9271 35.517 80.129 35.517C82.4068 31.2652 81.3309 26.9649 77.2826 26.3963ZM54.4306 60.44C52.8539 58.1849 50.9025 56.6987 48.2499 56.0267C47.5908 55.8587 45.704 55.8587 45.0449 56.0267C42.3923 56.6987 40.4409 58.1849 38.8642 60.44C37.4685 62.4367 36.6511 64.6725 36.1471 67.0407C36.1148 67.1926 38.483 68.5496 38.567 68.5786C38.609 68.4817 41.1097 59.0701 46.6506 58.8084C52.1916 59.0701 54.6923 68.4817 54.7343 68.5786C54.8183 68.5496 57.1865 67.1926 57.1542 67.0407C56.6437 64.6757 55.8263 62.44 54.4306 60.44ZM47.4454 32.2959C51.1189 32.2312 56.0202 31.2103 60.2656 26.7129C60.2785 26.7 58.8731 25.427 57.8004 24.2897C55.2383 27.4172 52.0882 29.1102 47.3744 29.2007C42.6605 29.1102 39.3424 27.5659 36.7803 24.4384C35.7044 25.5756 34.4509 26.532 34.4605 26.5449C38.7059 31.039 43.6265 32.228 47.3 32.2959V32.2991C47.3227 32.2991 47.3485 32.2959 47.3711 32.2959C47.3937 32.2959 47.4196 32.2991 47.4422 32.2991C47.4454 32.2991 47.4454 32.2959 47.4454 32.2959ZM49.3904 61.4642H44.4246V64.4819H49.3904V61.4642Z" fill="white"/>
</svg>
