<svg width="18" height="16" viewBox="0 0 18 16" fill="none" xmlns="http://www.w3.org/2000/svg">
<path fill-rule="evenodd" clip-rule="evenodd" d="M0.0269708 5.72975C-0.0795834 5.27838 0.138191 4.81298 0.553006 4.60557L8.55301 0.605573C8.83453 0.464809 9.1659 0.464809 9.44743 0.605573L17.4474 4.60557C17.8622 4.81298 18.08 5.27838 17.9735 5.72975C17.8669 6.18112 17.464 6.5 17.0002 6.5H1.00022C0.536442 6.5 0.133525 6.18112 0.0269708 5.72975ZM5.23629 4.5H12.7642L9.00022 2.61803L5.23629 4.5Z" fill="white"/>
<path d="M3.00024 7.5C3.55253 7.5 4.00024 7.94772 4.00024 8.5V13.5H6.00024V8.5C6.00024 7.94772 6.44796 7.5 7.00024 7.5C7.55253 7.5 8.00024 7.94772 8.00024 8.5V13.5H10.0002V8.5C10.0002 7.94772 10.448 7.5 11.0002 7.5C11.5525 7.5 12.0002 7.94772 12.0002 8.5V13.5H14.0002V8.5C14.0002 7.94772 14.448 7.5 15.0002 7.5C15.5525 7.5 16.0002 7.94772 16.0002 8.5V13.5H17.0002C17.5525 13.5 18.0002 13.9477 18.0002 14.5C18.0002 15.0523 17.5525 15.5 17.0002 15.5H1.00024C0.447959 15.5 0.00024414 15.0523 0.00024414 14.5C0.00024414 13.9477 0.447959 13.5 1.00024 13.5H2.00024V8.5C2.00024 7.94772 2.44796 7.5 3.00024 7.5Z" fill="white"/>
</svg>
